<svg width="60" height="73" viewBox="0 0 60 73" fill="none" xmlns="http://www.w3.org/2000/svg">
<path opacity="0.5" fill-rule="evenodd" clip-rule="evenodd" d="M26.468 0.133931C22.4614 0.516242 18.4862 1.63654 15.1063 3.33574C7.04138 7.39037 1.78867 14.7476 0.2992 24.0755C0.0109357 25.881 -0.0963322 30.3994 0.0994109 32.4932C1.07186 42.896 6.31295 53.0489 13.9599 59.3432C14.6669 59.9252 15.2454 60.5 15.2454 60.6206C15.2454 61.0424 15.7616 62.8167 16.1544 63.7453C18.1801 68.5327 22.4611 71.9605 27.5119 72.8393C28.8712 73.0758 31.3815 73.0473 32.7725 72.7796C38.1446 71.7458 42.5847 67.7912 44.2806 62.5298C44.4668 61.9523 44.6534 61.2309 44.6953 60.9265C44.7659 60.4145 44.8703 60.2922 46.092 59.2908C53.4847 53.231 58.6346 43.4592 59.8089 33.2633C60.0366 31.2857 60.0666 27.3232 59.8676 25.4812C59.3742 20.9112 57.6652 16.043 55.3118 12.5036C51.0757 6.13267 44.1703 1.82999 35.9941 0.466764C33.2392 0.00754365 29.2525 -0.131837 26.468 0.133931ZM34.3629 5.30938C37.6077 5.80797 40.3172 6.67352 43.0409 8.0815C45.25 9.22345 46.8742 10.4098 48.5869 12.1323C51.9304 15.4949 53.8252 19.3335 54.742 24.6012C55.0724 26.4994 55.0683 31.6069 54.7344 33.7875C53.8128 39.8088 51.4555 45.4775 47.8913 50.2441C47.049 51.3705 44.7748 53.9333 44.6174 53.9333C44.5584 53.9333 44.3488 53.4756 44.1517 52.9162C42.6253 48.5857 39.279 45.2496 34.8604 43.653C31.9048 42.5851 28.0779 42.5851 25.1223 43.653C20.7191 45.244 17.3504 48.6025 15.8308 52.9162C15.6337 53.4756 15.4249 53.9333 15.3669 53.9333C15.1904 53.9333 12.9137 51.3247 11.9086 49.971C6.23322 42.3266 3.76594 32.1416 5.47674 23.4193C7.1904 14.6828 13.4035 8.30317 22.4762 5.96455C24.0021 5.57121 26.0123 5.22853 27.7729 5.06159C28.9054 4.95424 33.0708 5.11081 34.3629 5.30938ZM16.5917 20.1984C13.7548 20.5328 11.2393 22.6086 10.3283 25.3666C9.97817 26.4266 9.97439 26.4764 9.96734 30.1127C9.96134 33.2349 9.99488 33.9135 10.1905 34.6257C10.929 37.3142 13.2363 39.5312 15.8828 40.0954C17.1908 40.3743 25.2412 40.3636 25.9175 40.0822C26.2092 39.9608 27.1185 39.1631 28.197 38.0824L29.9913 36.2846L31.7857 38.0824C32.8642 39.1631 33.7735 39.9608 34.0651 40.0822C34.75 40.3671 42.7929 40.3741 44.1223 40.0907C46.7092 39.5393 48.897 37.491 49.733 34.8374C50.0027 33.9812 50.0224 33.6733 50.0224 30.3095C50.0224 26.3144 49.9621 25.8629 49.2253 24.338C48.3643 22.5559 46.7633 21.1627 44.8127 20.4979L43.7586 20.1387L30.5786 20.121C23.3296 20.1111 17.0355 20.146 16.5917 20.1984ZM43.6607 25.4694C44.0052 25.6371 44.3718 25.9595 44.5828 26.2801L44.9331 26.8124V30.2549V33.6974L44.5277 34.2018C43.7106 35.2186 43.6761 35.2262 39.6603 35.2718L36.0838 35.3125L33.6575 32.8892C31.2395 30.4745 30.8407 30.1797 29.9913 30.1797C29.1423 30.1797 28.7429 30.4748 26.3332 32.8814L23.9146 35.2968L20.5914 35.296C18.7081 35.2956 17.0578 35.2365 16.7827 35.1598C16.1531 34.9839 15.561 34.4756 15.2334 33.8293C14.9888 33.3474 14.9742 33.1008 15.0106 30.0627L15.0496 26.8116L15.3978 26.2829C15.6015 25.9736 15.9807 25.6373 16.3112 25.4727L16.8766 25.1913L29.9827 25.1912C43.0719 25.191 43.0897 25.1914 43.6607 25.4694ZM32.4172 48.1607C35.254 48.8878 37.5275 50.6929 38.8465 53.2654C39.7121 54.9535 39.8401 55.5546 39.8409 57.9362C39.8415 59.8995 39.8178 60.1045 39.4763 61.0861C38.9407 62.6253 38.1777 63.8341 36.9841 65.0347C35.0988 66.9307 33.1214 67.8277 30.568 67.9447C28.8526 68.0233 27.6958 67.8483 26.3471 67.3057C23.2441 66.0573 20.8293 63.1369 20.1975 59.8682C19.9962 58.8267 20.1077 56.2601 20.4012 55.1801C21.3259 51.7777 24.0725 49.0744 27.5305 48.1635C28.8763 47.809 31.0401 47.8078 32.4172 48.1607ZM23.9082 50.6408C22.0358 51.496 22.0687 54.3029 23.9609 55.1448C25.8775 55.9974 27.9269 54.2646 27.387 52.2479C26.9897 50.7641 25.3235 49.9945 23.9082 50.6408ZM33.9661 50.6365C33.1285 51.0191 32.4722 52.0062 32.4722 52.8834C32.4722 53.3275 32.7625 54.0812 33.0794 54.46C34.1004 55.6803 36.0227 55.6638 36.9533 54.4267C38.5248 52.3375 36.3322 49.5554 33.9661 50.6365ZM23.8325 60.7634C21.7085 61.8914 22.3211 65.18 24.7054 65.4502C26.1202 65.6106 27.5105 64.3908 27.5105 62.9891C27.5105 62.1383 26.7596 60.9984 25.9849 60.6728C25.3833 60.42 24.4009 60.4614 23.8325 60.7634ZM33.969 60.6712C33.4105 60.9261 32.7678 61.7111 32.5977 62.3459C32.0071 64.5522 34.5562 66.3303 36.4158 65.009C37.7974 64.0273 37.8282 62.0513 36.4787 60.9692C36.0694 60.641 35.845 60.566 35.1737 60.5322C34.6816 60.5076 34.208 60.5622 33.969 60.6712Z" fill="white"/>
</svg>
