<svg width="73" height="73" viewBox="0 0 73 73" fill="none" xmlns="http://www.w3.org/2000/svg">
<g opacity="0.5">
<path d="M38.0392 36.412C38.0392 31.9406 38.0392 27.4691 38.0392 22.9976C38.0392 22.7426 38.0392 22.484 38.0603 22.2307C38.0695 21.9544 38.1705 21.6891 38.3473 21.4767C38.524 21.2642 38.7666 21.1167 39.0365 21.0574C40.0018 20.8004 41.017 20.7955 41.9847 21.0433C42.7041 21.2193 43.0137 21.6678 43.0137 22.4101C43.0137 25.3442 43.0137 28.2765 43.0137 31.2053C43.0238 31.4085 43.0443 31.6111 43.0753 31.8122C43.2577 31.7312 43.4341 31.6371 43.603 31.5307C45.8053 29.9001 48.2469 29.4199 50.8872 30.1024C53.3639 30.7444 54.9787 32.3891 55.9761 34.697C56.6797 36.3364 56.9629 38.0761 57.0315 39.8457C57.1335 42.3347 56.9048 44.771 55.9057 47.0982C53.9708 51.589 49.8986 52.75 46.3365 52.0481C45.0806 51.8001 44.0181 51.144 43.0331 50.3524C42.9319 50.2781 42.8268 50.2094 42.7182 50.1466C42.6764 50.2751 42.6452 50.4069 42.625 50.5406C42.5792 51.2196 42.2609 51.6435 41.5907 51.8159C40.7486 52.0349 39.8645 52.0349 39.0225 51.8159C38.7593 51.7643 38.5211 51.6255 38.3465 51.4218C38.1719 51.2182 38.0711 50.9617 38.0603 50.6936C38.0409 50.4702 38.0409 50.2469 38.0321 50.0217C38.0321 49.99 38.0321 49.9584 38.0321 49.9267L38.0392 36.412ZM43.0155 41.0506C43.0155 42.106 43.0155 43.1615 43.0155 44.2169C43.0008 44.3907 43.0408 44.5647 43.1298 44.7147C44.0445 45.7701 44.9874 46.8097 46.2961 47.4078C47.9109 48.1483 49.6383 47.6927 50.6216 46.2169C50.9961 45.6399 51.2869 45.0127 51.4852 44.3541C52.013 42.6724 52.0006 40.9433 51.8089 39.2089C51.6946 38.1658 51.4852 37.1508 50.9857 36.2185C50.2152 34.7726 49.0367 34.1552 47.4131 34.3487C46.6885 34.4219 46.0036 34.7146 45.45 35.1877C44.6813 35.8615 43.9566 36.595 43.2424 37.3197C43.099 37.5052 43.0238 37.7344 43.0296 37.9688C43.0032 38.9996 43.0155 40.0269 43.0155 41.0524V41.0506Z" fill="white"/>
<path d="M48.2239 52.3243C47.5877 52.3271 46.9526 52.2682 46.3277 52.1484C45.2178 51.9285 44.187 51.4008 42.9855 50.4351C42.9211 50.3847 42.8529 50.3394 42.7815 50.2996V50.3119C42.7545 50.3936 42.7362 50.4779 42.727 50.5635C42.676 51.297 42.3171 51.7403 41.6276 51.9162C40.7712 52.1395 39.8718 52.1395 39.0154 51.9162C38.7344 51.861 38.4803 51.7129 38.2939 51.4955C38.1075 51.2782 37.9998 51.0043 37.9881 50.7183C37.9741 50.56 37.9688 50.4016 37.9653 50.2468C37.9653 50.1782 37.9653 50.1096 37.9653 50.0428C37.9635 50.0194 37.9635 49.9959 37.9653 49.9724V35.0716C37.9653 31.047 37.9653 27.0223 37.9653 22.9976V22.9149C37.9653 22.688 37.9653 22.4523 37.9864 22.2219C37.9965 21.9273 38.1046 21.6446 38.2935 21.4184C38.4825 21.1922 38.7414 21.0354 39.0295 20.973C40.0084 20.711 41.0382 20.7055 42.0198 20.9571C42.7674 21.1471 43.1157 21.608 43.1157 22.4101C43.1157 23.7845 43.1157 25.1583 43.1157 26.5315C43.1157 28.09 43.1157 29.6491 43.1157 31.2088C43.1187 31.3432 43.131 31.4772 43.1527 31.6099C43.1527 31.6345 43.1527 31.6574 43.1527 31.6802L43.2125 31.6521C43.3316 31.6001 43.4453 31.5365 43.552 31.4621C45.7754 29.8174 48.2521 29.3319 50.91 30.0197C53.253 30.6266 54.9857 32.1903 56.0587 34.6653C56.7025 36.1499 57.042 37.7964 57.1264 39.8457C57.246 42.7481 56.8854 45.0647 55.9936 47.1369C54.3384 50.9804 51.158 52.3243 48.2239 52.3243ZM42.6689 50.0111L42.7727 50.078L42.873 50.1396C42.9505 50.1847 43.0251 50.2346 43.0964 50.2891C44.2749 51.2354 45.2811 51.7543 46.3611 51.9672C49.64 52.6128 53.8511 51.6646 55.8318 47.07C56.7113 45.0225 57.0631 42.7287 56.9505 39.858C56.8661 37.8281 56.5319 36.2027 55.8951 34.7392C54.8397 32.3152 53.1528 30.7866 50.8643 30.1938C48.2591 29.5201 45.8334 29.9951 43.6522 31.6011C43.5365 31.6811 43.4134 31.75 43.2846 31.8069L43.1087 31.8895L42.9943 31.9511L42.9803 31.8227C42.9803 31.7576 42.9662 31.6943 42.9574 31.631C42.9347 31.4901 42.9218 31.3479 42.9187 31.2053C42.9187 29.6468 42.9187 28.0877 42.9187 26.528C42.9187 25.1536 42.9187 23.7804 42.9187 22.4083C42.9187 21.6889 42.6214 21.2931 41.9565 21.1242C41.0032 20.8796 40.0029 20.8851 39.0523 21.1401C38.7994 21.1933 38.5717 21.3303 38.4061 21.5288C38.2404 21.7273 38.1465 21.9758 38.1394 22.2342C38.1201 22.4576 38.1201 22.688 38.1201 22.9114V22.9941C38.1201 27.0188 38.1201 31.0434 38.1201 35.0681V49.9566C38.1183 49.9771 38.1183 49.9977 38.1201 50.0182C38.1201 50.0868 38.1201 50.1554 38.1201 50.224C38.1201 50.3753 38.1288 50.5318 38.1412 50.6848C38.1494 50.9349 38.2428 51.1747 38.406 51.3644C38.5692 51.5541 38.7922 51.6824 39.0383 51.728C39.8651 51.9463 40.7341 51.9493 41.5625 51.7368C42.1781 51.5784 42.486 51.1985 42.53 50.5406C42.5402 50.4418 42.5614 50.3445 42.5933 50.2504C42.6038 50.2117 42.6161 50.1712 42.6267 50.1307L42.6689 50.0111ZM47.8264 47.8458C47.2836 47.8431 46.7477 47.7231 46.2556 47.494C44.9645 46.8994 44.0111 45.8704 43.0682 44.778C42.9644 44.6135 42.9168 44.4196 42.9328 44.2257C42.9328 43.4288 42.9328 42.6197 42.9328 41.8369V41.0506C42.9328 40.778 42.9328 40.5035 42.9328 40.2309C42.9328 39.4903 42.9328 38.7234 42.9451 37.9705C42.9402 37.7155 43.0242 37.4668 43.1826 37.2669C43.8651 36.5633 44.6056 35.821 45.3954 35.1314C45.962 34.6447 46.6645 34.3438 47.4078 34.2695C49.0771 34.0708 50.275 34.6987 51.0666 36.1851C51.5028 37.0031 51.7596 37.9441 51.9003 39.2107C52.1325 41.3215 52.0305 42.9169 51.5714 44.3928C51.3695 45.06 51.0734 45.695 50.6919 46.2785C50.3834 46.7584 49.9594 47.1534 49.4588 47.4272C48.9582 47.701 48.397 47.8449 47.8264 47.8458ZM43.0964 41.0524V41.8387C43.0964 42.6214 43.0964 43.4306 43.0964 44.2257C43.0836 44.3782 43.116 44.5312 43.1896 44.6654C44.1553 45.7824 45.0559 46.7552 46.3172 47.3356C47.9003 48.0604 49.5872 47.596 50.5388 46.1782C50.908 45.6075 51.1946 44.9874 51.3902 44.3365C51.8405 42.8853 51.9408 41.3109 51.7121 39.2265C51.5749 37.9758 51.3234 37.0629 50.8977 36.2643C50.1431 34.857 49.005 34.2519 47.413 34.4401C46.7058 34.5113 46.0373 34.7974 45.4974 35.2599C44.7129 35.9459 43.9741 36.6882 43.2951 37.3865C43.1683 37.5564 43.102 37.7639 43.1069 37.9758C43.0911 38.7269 43.0928 39.4921 43.0946 40.2309C43.0946 40.5053 43.0946 40.778 43.0946 41.0524H43.0964Z" fill="white"/>
<path d="M16.0582 37.7911C16.0582 33.6867 16.0582 29.5823 16.0582 25.4779C16.0582 23.7927 16.8551 22.9976 18.5209 22.9959C20.4453 22.9959 22.3691 22.9959 24.2923 22.9959C25.8068 22.9959 27.3125 23.1384 28.7426 23.6502C32.1218 24.8587 34.0426 27.258 34.3469 30.8535C34.602 33.8544 33.865 36.558 31.6486 38.7146C30.1252 40.1975 28.2413 41.0014 26.1569 41.2494C24.6986 41.4253 23.2175 41.3989 21.7452 41.4534C21.1718 41.4746 21.1665 41.4534 21.1665 42.0498C21.1665 44.8068 21.1665 47.5626 21.1665 50.3172C21.1665 51.2143 20.8375 51.7244 19.9545 51.8142C19.0516 51.9106 18.1408 51.9077 17.2386 51.8054C16.3801 51.7086 16.0494 51.2091 16.0494 50.3348C16.0494 46.1518 16.0494 41.9683 16.0494 37.7841L16.0582 37.7911ZM21.177 32.1904C21.177 33.6328 21.177 35.0734 21.177 36.5141C21.177 36.7885 21.2175 36.9749 21.564 36.9679C22.5719 36.9486 23.5834 36.9996 24.5896 36.9362C26.9256 36.7902 28.4858 35.485 28.9133 33.3373C29.0191 32.7869 29.061 32.2261 29.0382 31.6662C28.952 29.3495 27.5782 27.8403 25.2897 27.6204C24.0988 27.5025 22.8921 27.5447 21.6942 27.492C21.2949 27.4761 21.1665 27.6169 21.1665 28.0197C21.1893 29.3953 21.177 30.7831 21.177 32.1904Z" fill="white"/>
<path d="M18.6458 51.9795C18.1756 51.9794 17.7058 51.9529 17.2385 51.9003C16.3748 51.8036 15.972 51.3075 15.972 50.3418C15.972 47.2412 15.972 44.1401 15.972 41.0383V34.259C15.972 31.3343 15.972 28.4084 15.972 25.4814C15.972 23.754 16.8111 22.9132 18.5314 22.9114C20.4558 22.9114 22.3796 22.9114 24.3028 22.9114C26.1164 22.9114 27.5394 23.126 28.7831 23.5711C32.2343 24.8024 34.1393 27.2545 34.4454 30.85C34.7198 34.0848 33.8034 36.7533 31.7207 38.7815C30.2378 40.2239 28.3785 41.0858 26.1779 41.3409C25.1225 41.4622 24.0425 41.4869 22.9958 41.5168C22.5842 41.5168 22.1709 41.5344 21.7645 41.5502H21.7258C21.4971 41.5502 21.3599 41.5625 21.316 41.61C21.272 41.6575 21.2702 41.8176 21.2702 42.0568V50.3242C21.2702 51.3075 20.8604 51.8124 19.9809 51.9074C19.5375 51.9564 19.0918 51.9804 18.6458 51.9795ZM16.1444 37.8791V41.0453C16.1444 44.1459 16.1444 47.2471 16.1444 50.3489C16.1444 51.2196 16.4874 51.6453 17.2544 51.7332C18.1511 51.8326 19.056 51.8326 19.9527 51.7332C20.7478 51.6453 21.0855 51.2249 21.0855 50.326V42.0585C21.0855 41.4411 21.1278 41.3971 21.71 41.376H21.7487C22.1621 41.3602 22.5754 41.3514 22.9888 41.3426C24.0302 41.318 25.0997 41.2951 26.1551 41.1667C28.3117 40.9169 30.141 40.0726 31.5958 38.6566C33.6398 36.6689 34.5386 34.0461 34.2677 30.8658C33.9687 27.3477 32.1041 24.9484 28.7215 23.7382C27.4902 23.3002 26.0935 23.0944 24.3011 23.0891C22.3767 23.0891 20.4529 23.0891 18.5297 23.0891C16.9043 23.0891 16.1479 23.8525 16.1462 25.4832C16.1462 28.4078 16.1462 31.3337 16.1462 34.2607V37.8808L16.1444 37.8791ZM23.2984 37.0488H22.7109C22.3344 37.0488 21.9457 37.0488 21.564 37.0488C21.501 37.0552 21.4374 37.0488 21.377 37.0301C21.3166 37.0113 21.2605 36.9806 21.2122 36.9397C21.1171 36.8168 21.0742 36.6614 21.0926 36.507C21.0926 35.441 21.0926 34.3745 21.0926 33.3073V32.1904C21.0926 31.8104 21.0926 31.4304 21.0926 31.0505C21.0926 30.0549 21.0926 29.0241 21.0838 28.0126C21.072 27.9264 21.0784 27.8386 21.1027 27.755C21.1269 27.6714 21.1684 27.5937 21.2245 27.5272C21.2905 27.4747 21.3665 27.4364 21.4479 27.4146C21.5293 27.3928 21.6143 27.388 21.6977 27.4005C22.141 27.4198 22.593 27.4269 23.0293 27.4339C23.7751 27.4445 24.5456 27.455 25.2984 27.5289C27.6063 27.7541 29.0364 29.3003 29.1261 31.6644C29.1495 32.2309 29.107 32.7982 28.9994 33.3548C28.565 35.5378 26.959 36.8729 24.6018 37.0242C24.1638 37.0418 23.7294 37.0488 23.2984 37.0488ZM22.1198 36.8729H22.7126C23.3265 36.8729 23.9616 36.8817 24.5825 36.843C26.8604 36.7005 28.4066 35.4147 28.8253 33.3144C28.9309 32.7711 28.9722 32.2173 28.9484 31.6644C28.8622 29.3636 27.5254 27.9177 25.2808 27.6978C24.5332 27.6257 23.7681 27.6151 23.0258 27.6045C22.5877 27.6045 22.1339 27.5905 21.6871 27.5711C21.5679 27.5506 21.4453 27.5777 21.3459 27.6468C21.2722 27.7483 21.2407 27.8743 21.2579 27.9986C21.272 29.0135 21.2702 30.0426 21.2667 31.0399C21.2667 31.4199 21.2667 31.7998 21.2667 32.1798V33.3038C21.2667 34.3698 21.2667 35.4369 21.2667 36.5053C21.2527 36.612 21.2764 36.7202 21.3336 36.8113C21.4 36.8597 21.4826 36.8805 21.564 36.8694C21.7452 36.8676 21.9334 36.8676 22.1198 36.8676V36.8729Z" fill="white"/>
<path d="M61.2831 73H11.7117C8.60577 72.9963 5.62822 71.7605 3.43252 69.5638C1.23681 67.3671 0.00232742 64.389 0 61.2831V11.7117C0.00372412 8.60668 1.23882 5.62994 3.43438 3.43438C5.62994 1.23882 8.60668 0.00372412 11.7117 0H61.2831C64.389 0.00232742 67.3671 1.23681 69.5638 3.43252C71.7605 5.62822 72.9963 8.60577 73 11.7117V61.2831C72.9977 64.3899 71.7625 67.3688 69.5656 69.5656C67.3688 71.7625 64.3899 72.9977 61.2831 73ZM11.7117 4.22169C9.72591 4.22401 7.82216 5.01388 6.41802 6.41802C5.01388 7.82216 4.22401 9.72591 4.22169 11.7117V61.2831C4.22262 63.2697 5.01187 65.1748 6.41616 66.5801C7.82045 67.9854 9.725 68.776 11.7117 68.7783H61.2831C63.2706 68.7774 65.1765 67.9874 66.582 66.582C67.9874 65.1765 68.7774 63.2706 68.7783 61.2831V11.7117C68.776 9.725 67.9854 7.82045 66.5801 6.41616C65.1748 5.01187 63.2697 4.22262 61.2831 4.22169H11.7117Z" fill="white"/>
</g>
</svg>
