<svg width="74" height="73" viewBox="0 0 74 73" fill="none" xmlns="http://www.w3.org/2000/svg">
<path opacity="0.5" fill-rule="evenodd" clip-rule="evenodd" d="M33.6315 0.0794455C28.9633 0.554023 24.6983 1.73789 20.7212 3.66331C18.2997 4.83554 17.0551 5.59021 14.6764 7.32851C12.5826 8.85877 9.04139 12.3215 7.5326 14.314C3.52442 19.6073 1.16683 25.3121 0.182655 32.0989C-0.0564482 33.7479 -0.0621196 39.0222 0.173401 40.7919C1.06324 47.4805 3.49502 53.4034 7.53573 58.7242C9.82766 61.7421 13.9543 65.4399 17.5122 67.6637C21.2873 70.0233 26.685 71.968 31.542 72.7184C33.9711 73.0939 40.0083 73.0939 42.4374 72.7184C47.3341 71.9619 52.6539 70.0451 56.4672 67.6632C60.0316 65.4368 64.1732 61.7227 66.4845 58.6799C70.3726 53.561 72.7109 47.9772 73.7287 41.3813C74.0905 39.0361 74.0905 34.0021 73.7287 31.6569C72.4839 23.5891 69.17 16.8156 63.7358 11.2318C57.6731 5.00218 49.9341 1.19789 41.2943 0.200263C39.5744 0.0016508 35.0918 -0.0690718 33.6315 0.0794455ZM42.3465 4.83068C48.5239 5.9005 54.0302 8.5106 58.6313 12.55L59.2283 13.0741L36.3182 35.6996C23.7177 48.1437 13.3281 58.3252 13.2303 58.3252C12.9617 58.3252 11.0332 55.9551 9.81348 54.1261C3.43681 44.5636 2.70249 32.3837 7.88901 22.2072C9.57467 18.8997 11.2756 16.583 13.9966 13.8882C18.9355 8.99653 24.8601 5.95119 31.5703 4.85513C34.1096 4.44038 34.3693 4.42432 37.6613 4.47692C39.7662 4.51051 41.0629 4.60849 42.3465 4.83068ZM38.8544 8.8097C37.2351 9.29607 36.321 10.5094 36.3189 12.1761C36.3178 13.0354 36.6613 13.783 37.3992 14.5272L38.0186 15.1516L37.8279 16.2952C37.5537 17.9382 36.8427 19.3173 35.7294 20.3656C35.2307 20.8352 34.7418 21.1929 34.643 21.1604C34.5057 21.1151 33.9899 18.3132 33.9363 17.3216C33.9328 17.2571 33.7651 17.0417 33.5636 16.8428C33.0115 16.2976 31.97 16.3306 31.3812 16.9117C30.8659 17.4205 30.8388 17.8296 31.1706 20.0908C31.5282 22.5268 31.5627 22.4095 30.3488 22.8797C29.7747 23.102 29.2669 23.3445 29.2206 23.4186C28.9972 23.7755 28.4966 23.4217 26.9148 21.7891C25.2653 20.0867 25.174 20.0172 24.5841 20.0172C23.8368 20.0172 23.2708 20.4154 23.0408 21.1033C22.7968 21.8331 23.015 22.229 24.5358 23.8153C25.2753 24.5867 25.856 25.2901 25.8262 25.3784C25.7311 25.6601 24.1898 26.0398 23.1032 26.0491C21.8047 26.0601 20.5592 25.7506 19.4241 25.1345C18.5634 24.6675 18.557 24.6591 18.557 23.9903C18.557 23.0744 17.9365 21.877 17.1825 21.3379C16.8592 21.1066 16.2418 20.8395 15.8104 20.7441C14.3536 20.4223 12.7863 21.178 12.0324 22.5657C11.6529 23.2642 11.6876 24.7852 12.1008 25.5606C12.9869 27.2239 15.2912 27.8874 16.8592 26.9307L17.3948 26.6039L18.0133 26.901C19.0507 27.3994 20.1904 28.3928 20.8092 29.338C21.4153 30.2635 21.9898 31.8206 21.9898 32.5374V32.9447L20.0122 33.1963C17.5936 33.5041 16.9836 33.6522 16.6088 34.0221C16.1767 34.4487 16.2158 35.4001 16.6846 35.8627C17.1288 36.3013 17.5477 36.3172 19.9713 35.9884C20.9279 35.8586 21.7468 35.7881 21.7911 35.8318C21.8353 35.8755 21.9305 36.4311 22.0025 37.0666C22.0746 37.7021 22.2323 38.5465 22.3534 38.9431C22.6149 39.8009 22.7258 39.6832 20.6147 40.7868C19.8104 41.2073 19.0855 41.6745 19.0039 41.8249C18.7345 42.3219 18.8291 43.25 19.1916 43.6659C19.7906 44.3534 20.5025 44.3198 22.0664 43.5307C23.4099 42.8526 23.4219 42.8415 33.0872 33.2993L42.7631 23.7466L41.9659 22.9501C40.2001 21.1857 39.6061 19.083 40.1028 16.3554C40.2664 15.4564 40.2956 15.4117 40.8332 15.2307C42.2201 14.7638 43.0643 13.562 43.0643 12.0541C43.0643 9.90148 40.8644 8.2062 38.8544 8.8097ZM63.2337 17.5492C66.372 21.7475 68.4784 26.8798 69.2382 32.18C69.5735 34.5191 69.5735 38.5191 69.2382 40.8582C68.2238 47.9345 65.1266 54.0555 59.9828 59.15C53.9642 65.111 46.5226 68.3127 38.0345 68.5932C30.8556 68.8305 24.1093 66.8382 18.2373 62.7469C17.4925 62.2279 16.8472 61.7105 16.803 61.5967C16.7164 61.374 28.642 49.4849 28.952 49.4849C29.1765 49.4849 29.3609 51.0513 29.2332 51.8738C29.1793 52.2211 28.8944 53.3101 28.5999 54.2937L28.0647 56.0823L27.4793 56.1598C25.816 56.3799 24.4816 58.3103 24.811 60.0196C25.3381 62.7552 28.5856 63.7563 30.5721 61.7952C30.9503 61.4217 31.2876 60.9178 31.3806 60.587C31.7436 59.2969 31.4254 57.9021 30.5772 57.0647L30.1941 56.6865L30.7344 54.9643C31.3845 52.8921 31.8744 51.9979 32.9184 50.9773C33.7851 50.1299 35.4278 49.2497 36.4182 49.1018L37.0409 49.0089L37.4897 50.4625C37.7365 51.262 38.1119 52.4852 38.3239 53.1809C38.8003 54.7452 39.1809 55.1574 40.1483 55.1574C40.7185 55.1574 40.8859 55.0847 41.2556 54.6762C41.4952 54.4116 41.6911 54.0375 41.6911 53.8451C41.6911 53.6525 41.3559 52.4105 40.9461 51.0847C40.5364 49.7591 40.2006 48.6006 40.1998 48.5101C40.1992 48.4196 40.5874 48.2057 41.0626 48.0346C41.5379 47.8636 42.5408 47.3243 43.2913 46.8362C44.0419 46.3481 44.6892 45.9488 44.7299 45.9488C44.7707 45.9488 45.586 46.9059 46.5419 48.0758C48.4163 50.37 48.6747 50.548 49.6635 50.2257C50.6026 49.9198 50.9345 48.8441 50.3696 47.9378C50.2181 47.6947 49.4121 46.6676 48.5787 45.6553C47.7453 44.6429 47.0856 43.7478 47.1126 43.6662C47.1936 43.4218 48.0811 42.8871 48.9811 42.5404C49.6284 42.2909 50.1563 42.2124 51.2433 42.2034C52.5287 42.1927 52.852 42.2523 54.7012 42.8408L56.7412 43.49L56.8404 44.0127C57.2318 46.0714 59.2095 47.2442 61.3179 46.6681C62.1099 46.4515 63.245 45.331 63.4644 44.5491C64.0262 42.5455 62.941 40.6754 60.942 40.202C59.9598 39.9693 58.9382 40.2071 58.0528 40.8746L57.3942 41.3711L55.4213 40.718C54.3363 40.3586 53.1269 39.8609 52.7337 39.6119C51.7082 38.9623 50.7012 37.8388 50.192 36.7762C49.6885 35.7257 49.6347 35.223 50.012 35.0955C51.8714 34.4673 54.1196 33.4916 54.3027 33.2334C54.5603 32.8703 54.5991 31.918 54.3731 31.5015C54.1934 31.1698 53.4749 30.7729 53.0545 30.7729C52.8932 30.7729 51.9749 31.0764 51.0139 31.4474C50.0529 31.8183 49.2174 32.067 49.1571 31.9999C49.022 31.8493 48.5568 30.4206 48.5568 30.1564C48.5568 29.9581 62.124 16.481 62.3237 16.481C62.385 16.481 62.7944 16.9618 63.2337 17.5492ZM33.8228 25.2302C34.4082 25.478 35.1985 26.2786 35.4134 26.8412C35.6461 27.4507 35.6064 28.5099 35.3304 29.049C34.5351 30.603 32.8784 31.1893 31.3957 30.4414C30.1209 29.7984 29.5429 28.5991 29.8156 27.1635C29.9338 26.5416 30.813 25.513 31.4673 25.2312C32.0581 24.9766 33.2231 24.9761 33.8228 25.2302ZM28.2051 33.0765C28.8124 33.361 29.1539 33.9398 29.1539 34.6847C29.1539 35.0999 29.0383 35.3367 28.6465 35.7235C28.2133 36.151 28.0363 36.2244 27.4375 36.2244C26.8387 36.2244 26.6617 36.151 26.2286 35.7235C25.8368 35.3367 25.7211 35.0999 25.7211 34.6847C25.7211 33.9507 26.0571 33.3687 26.6462 33.0821C27.2714 32.7779 27.5656 32.7768 28.2051 33.0765ZM44.1641 37.8547C45.3268 38.9329 44.5984 40.7116 42.9943 40.7116C42.5089 40.7116 42.3211 40.6176 41.9004 40.1646C41.3319 39.5521 41.2477 38.9911 41.6185 38.2836C42.0888 37.3856 43.417 37.1618 44.1641 37.8547ZM39.5692 42.79C40.6171 43.5144 40.5541 45.1654 39.4573 45.7253C38.2258 46.354 36.9151 45.5156 36.9151 44.0997C36.9151 43.6845 37.0307 43.4477 37.4225 43.0609C37.8451 42.6438 38.0394 42.56 38.5833 42.56C38.9427 42.56 39.3864 42.6634 39.5692 42.79Z" fill="white"/>
</svg>
