<svg width="53" height="73" viewBox="0 0 53 73" fill="none" xmlns="http://www.w3.org/2000/svg">
<g opacity="0.5">
<path d="M26.4888 10.5791C23.9404 10.5791 21.4493 11.3323 19.3305 12.7435C17.2116 14.1546 15.5601 16.1604 14.5849 18.5071C13.6097 20.8538 13.3546 23.4361 13.8517 25.9274C14.3489 28.4186 15.576 30.707 17.378 32.5031C19.1799 34.2992 21.4757 35.5224 23.9751 36.0179C26.4745 36.5134 29.0651 36.2591 31.4195 35.2871C33.7738 34.315 35.7861 32.6689 37.2019 30.5569C38.6177 28.445 39.3734 25.9619 39.3734 23.4219C39.3734 20.0157 38.0159 16.7491 35.5995 14.3406C33.1832 11.9321 29.906 10.5791 26.4888 10.5791ZM26.4888 31.782C24.8299 31.782 23.2083 31.2917 21.829 30.3731C20.4497 29.4544 19.3747 28.1488 18.7398 26.6211C18.105 25.0935 17.9389 23.4126 18.2626 21.7909C18.5862 20.1692 19.385 18.6795 20.558 17.5103C21.731 16.3412 23.2255 15.5449 24.8525 15.2224C26.4795 14.8998 28.1659 15.0653 29.6985 15.6981C31.2311 16.3309 32.541 17.4024 33.4626 18.7772C34.3842 20.152 34.8761 21.7684 34.8761 23.4219C34.8702 25.6352 33.9839 27.7559 32.4116 29.3189C30.8393 30.8819 28.7093 31.7596 26.4888 31.7596V31.782Z" fill="white"/>
<path d="M26.4888 2.21888e-09C19.4847 0.00583098 12.7676 2.77406 7.80453 7.70007C2.84142 12.6261 0.0356414 19.3096 0 26.2908C0 36.7578 5.89139 45.5213 10.2087 51.9091L10.9958 53.0746C15.2913 59.28 19.8993 65.2645 24.8023 71.0052L26.5112 73L28.2202 71.0052C33.1225 65.264 37.7306 59.2795 42.0267 53.0746L42.8137 51.8867C47.1086 45.4989 53 36.7578 53 26.2908C52.9643 19.3057 50.1555 12.6188 45.1875 7.69217C40.2195 2.76552 33.4967 -9.04511e-05 26.4888 2.21888e-09ZM39.0585 49.3092L38.249 50.4971C34.3814 56.2797 29.2546 62.7571 26.4888 65.9622C23.8354 62.7571 18.5961 56.2797 14.7285 50.4971L13.9415 49.3092C9.96139 43.3921 4.49724 35.3009 4.49724 26.2011C4.49724 23.3225 5.06607 20.4721 6.17125 17.8126C7.27642 15.1531 8.89631 12.7367 10.9384 10.7012C12.9805 8.66573 15.4048 7.0511 18.073 5.94951C20.7411 4.84792 23.6008 4.28093 26.4888 4.28093C29.3767 4.28093 32.2364 4.84792 34.9045 5.94951C37.5727 7.0511 39.997 8.66573 42.0391 10.7012C44.0812 12.7367 45.7011 15.1531 46.8063 17.8126C47.9114 20.4721 48.4803 23.3225 48.4803 26.2011C48.4803 35.3905 43.0386 43.4817 39.0585 49.3092Z" fill="white"/>
</g>
</svg>
